inDegrees=no
num_controls=7
num_derivatives=13
num_iterations=97
num_multipliers=7
num_parameters=0
num_slacks=7
num_states=26
objective=0.444461
objective_accelerations=0.008986
objective_balance=0.000528
objective_effort=0.006615
objective_height=0.421848
objective_ligament=0.006484
solver_duration=1446.215623
status=Solve_Succeeded
success=true
DataType=double
version=3
OpenSimVersion=4.5
endheader
time	/jointset/ground_pelvis/pelvis_tilt/value	/jointset/ground_pelvis/pelvis_tx/value	/jointset/ground_pelvis/pelvis_ty/value	/jointset/hip_l/hip_flexion_l/value	/jointset/hip_l/hip_adduction_l/value	/jointset/hip_l/hip_rotation_l/value	/jointset/back/lumbar_extension/value	/jointset/patellofemoral_l/patellar_flexion_l/value	/jointset/knee_l/knee_flexion_l/value	/jointset/knee_l/knee_adduction_l/value	/jointset/knee_l/knee_rotation_l/value	/jointset/ankle_l/ankle_angle_l/value	/jointset/subtalar_l/subtalar_angle_l/value	/jointset/ground_pelvis/pelvis_tilt/speed	/jointset/ground_pelvis/pelvis_tx/speed	/jointset/ground_pelvis/pelvis_ty/speed	/jointset/hip_l/hip_flexion_l/speed	/jointset/hip_l/hip_adduction_l/speed	/jointset/hip_l/hip_rotation_l/speed	/jointset/back/lumbar_extension/speed	/jointset/patellofemoral_l/patellar_flexion_l/speed	/jointset/knee_l/knee_flexion_l/speed	/jointset/knee_l/knee_adduction_l/speed	/jointset/knee_l/knee_rotation_l/speed	/jointset/ankle_l/ankle_angle_l/speed	/jointset/subtalar_l/subtalar_angle_l/speed	/forceset/tau_hip_flexion_l	/forceset/tau_hip_adduction_l	/forceset/tau_hip_rotation_l	/forceset/tau_knee_flexion_l	/forceset/tau_ankle_angle_l	/forceset/tau_subtalar_angle_l	/forceset/tau_lumbar_extension	lambda_cid13_p0	lambda_cid13_p1	lambda_cid13_p2	lambda_cid13_p3	lambda_cid13_p4	lambda_cid13_p5	lambda_cid14_p0	/jointset/ground_pelvis/pelvis_tilt/accel	/jointset/ground_pelvis/pelvis_tx/accel	/jointset/ground_pelvis/pelvis_ty/accel	/jointset/hip_l/hip_flexion_l/accel	/jointset/hip_l/hip_adduction_l/accel	/jointset/hip_l/hip_rotation_l/accel	/jointset/back/lumbar_extension/accel	/jointset/patellofemoral_l/patellar_flexion_l/accel	/jointset/knee_l/knee_flexion_l/accel	/jointset/knee_l/knee_adduction_l/accel	/jointset/knee_l/knee_rotation_l/accel	/jointset/ankle_l/ankle_angle_l/accel	/jointset/subtalar_l/subtalar_angle_l/accel	gamma_cid13_p0	gamma_cid13_p1	gamma_cid13_p2	gamma_cid13_p3	gamma_cid13_p4	gamma_cid13_p5	gamma_cid14_p0
0.5	0.117478080363123	0.1880466995201749	0.8895810331656198	0.05028342071813485	-0.3796853459493548	-0.1850843758811462	-0.1954661953007976	0.3873594139992465	0.3873594139992461	-0.1451112033682195	-0.1745111036118309	0.2967561017708533	0.1373902710663891	0.1710637292554694	0.2010855379581118	-0.05544875030046035	-0.1964828120407573	-0.02877280342649328	0.1106629454830774	0.1041835663428956	0.4575180613248365	0.4575180613248362	0.06654698317552325	-0.0001242454579921428	0.526203044694417	0.1678454795185108	0.07017321804296961	-0.01410870684608177	0.01097143789504127	-0.1753857830961313	-0.04796097020934847	-0.02386024258944454	-0.005812989144567111	-43.61507138600544	16.606432261648	-1.337669675196123	6.871675177018495	-459.7926350096924	-66.99564973971164	-24.97867031706448	-0.3366215164144732	-0.1668963537080892	-0.05710509742019249	0.2096611555544086	-0.007911855136338759	-0.2874412222923192	0.2842559597120355	-0.5559056847218721	-0.555905684719635	-0.1059186014095187	0.008749056986461751	-0.5136504384397561	-0.04850638592067426	5.390159958133791e-09	-2.236344250385127e-07	5.436130970415483e-08	-1.911350148461144e-08	2.050766471528403e-08	-1.492657236704387e-07	-1.941944457524179e-08
0.51	0.119171497651925	0.1900489906984935	0.8890238034708283	0.04832949073166218	-0.3799734375468792	-0.1839930043203913	-0.1944101849085437	0.39190631514234	0.3919063151423396	-0.1444508736150129	-0.1745126827831172	0.3019918101658849	0.1390660756163586	0.1675887423011574	0.1993506951885586	-0.05598314752489954	-0.1942765899888112	-0.02883513289274289	0.1075976989858174	0.1070055232022858	0.4517913530080466	0.4517913530080583	0.06552491349356782	-0.0001858509162541526	0.5208698105247761	0.1672986496930312	0.07106538370678839	-0.01313024883939991	0.01112741478556374	-0.1758445327308325	-0.05111283783781968	-0.02315054376039743	-0.006467971350290663	-44.62272004873189	16.50362063727537	-1.354379244999956	7.264142883917029	-460.2378608854177	-67.03361063412883	-24.90152781732916	-0.357584440433002	-0.1800824062028401	-0.04949669264507944	0.2300933759977002	-0.003818159997491684	-0.3181277317150882	0.279217213210458	-0.5916716818956366	-0.5916716818955426	-0.09948921907907821	-0.01275025057352668	-0.5534900582144544	-0.06026003529970805	5.42783703285443e-09	-2.227380981946683e-07	5.426721929102768e-08	-1.887137924385706e-08	2.136614519172914e-08	-1.489328950625152e-07	-1.925209365643583e-08
0.52	0.1208292356400852	0.1920332726155919	0.8884616518722546	0.04639842109490559	-0.3802618373725917	-0.1829326974982634	-0.1933263446148642	0.3963938255469178	0.3963938255469177	-0.1438005921721239	-0.1745147049896543	0.3071721201888226	0.1407359141171857	0.1639278691271057	0.1974836857140494	-0.05643313105691064	-0.1919107420975454	-0.02883444906412123	0.1044499977576675	0.1097495466279921	0.4456399136217332	0.4456399136217333	0.06453732111199227	-0.0002128525081556517	0.5151233702756068	0.1666522696900277	0.07195754937060715	-0.01215179083271805	0.01128339167608621	-0.1763032823655337	-0.05426470546629161	-0.02244084493135032	-0.00712295355601421	-45.63320770552613	16.39853730816187	-1.367563982006919	7.664348421223797	-460.7323214171757	-67.08594504070291	-24.82375501068853	-0.373798760362408	-0.1933296946992957	-0.04022235893457173	0.2415863234183504	0.004690803837918344	-0.3039321684702788	0.2686692729752582	-0.6408518986265714	-0.6408518986290904	-0.09902314133345987	0.01566983025859223	-0.5962916543455069	-0.06841642142544924	5.542841619010068e-09	-2.22508653158885e-07	5.379200116855434e-08	-1.871187010228987e-08	2.238502321735606e-08	-1.48426829097502e-07	-1.909337860994149e-08
0.53	0.1224494368839754	0.1939982335713814	0.8878954241465363	0.04449185965253315	-0.3805498919647334	-0.1819043508329011	-0.1922154475669988	0.4008178038885152	0.4008178038885148	-0.1431599132126905	-0.1745169030779226	0.3122929630001603	0.1423988332379231	0.160082624985097	0.1954874653425815	-0.05679791966076898	-0.1893725721768061	-0.02876352617230977	0.1012004534368534	0.1124160533401862	0.4390925784089169	0.4390925784089106	0.06361302312411735	-0.0002258940137573449	0.5089813967459178	0.1659189480746815	0.07285593780622333	-0.01121707190369682	0.01142153430849957	-0.1767811392996313	-0.05730354686827404	-0.02174183787528134	-0.007785349233194802	-46.60520341982936	16.29173942693363	-1.380911369510208	8.029599332101874	-461.1873463781778	-67.14279996967032	-24.74544317783133	-0.394349662258987	-0.205927949178779	-0.03242836317953315	0.2642798349641832	0.01025246716055335	-0.3383087888178374	0.2635699296063924	-0.6711469739346858	-0.6711469739340838	-0.08698030987948535	-0.009656636039934528	-0.6327261505868407	-0.07765258857075819	5.497264246755326e-09	-2.211053138189698e-07	5.36327307117524e-08	-1.84180053440019e-08	2.308842206608138e-08	-1.478566027227136e-07	-1.891578267751769e-08
